<?xml version="1.0" encoding="UTF-8" standalone="no"?>
<!-- Created with Inkscape (http://www.inkscape.org/) -->

<svg
   xmlns:dc="http://purl.org/dc/elements/1.1/"
   xmlns:cc="http://creativecommons.org/ns#"
   xmlns:rdf="http://www.w3.org/1999/02/22-rdf-syntax-ns#"
   xmlns:svg="http://www.w3.org/2000/svg"
   xmlns="http://www.w3.org/2000/svg"
   xmlns:sodipodi="http://sodipodi.sourceforge.net/DTD/sodipodi-0.dtd"
   xmlns:inkscape="http://www.inkscape.org/namespaces/inkscape"
   width="32pt"
   height="32pt"
   viewBox="0 0 40.000001 40"
   id="svg4148"
   version="1.1"
   inkscape:version="0.91 r13725"
   shape-rendering="crispEdges"
   sodipodi:docname="run.svg">
  <defs
     id="defs4150" />
  <sodipodi:namedview
     id="base"
     pagecolor="#ffffff"
     bordercolor="#666666"
     borderopacity="1.0"
     inkscape:pageopacity="0.0"
     inkscape:pageshadow="2"
     inkscape:zoom="1.4"
     inkscape:cx="-213.44827"
     inkscape:cy="-48.786428"
     inkscape:document-units="px"
     inkscape:current-layer="layer1"
     showgrid="false"
     units="pt"
     inkscape:snap-others="false"
     inkscape:snap-nodes="false"
     inkscape:window-width="1858"
     inkscape:window-height="1057"
     inkscape:window-x="1974"
     inkscape:window-y="-8"
     inkscape:window-maximized="1" />
  <metadata
     id="metadata4153">
    <rdf:RDF>
      <cc:Work
         rdf:about="">
        <dc:format>image/svg+xml</dc:format>
        <dc:type
           rdf:resource="http://purl.org/dc/dcmitype/StillImage" />
        <dc:title></dc:title>
      </cc:Work>
    </rdf:RDF>
  </metadata>
  <g
     inkscape:label="Layer 1"
     inkscape:groupmode="layer"
     id="layer1"
     transform="translate(0,-1012.3622)">
    <path
       sodipodi:nodetypes="czsc"
       inkscape:connector-curvature="0"
       id="path4718"
       d="M 24.669718,1047.8884 C 24.669718,1047.8884 24.942591,1050.7847 26.662496,1049.9837 28.382402,1049.1827 28.326278,1044.8398 27.923458,1044.0445 27.189088,1042.5947 25.54737,1043.1132 24.730912,1043.3774"
       style="opacity:1;fill:#806600;fill-rule:evenodd;stroke:#000000;stroke-width:0.875;stroke-linecap:round;stroke-linejoin:miter;stroke-miterlimit:4;stroke-dasharray:none;stroke-opacity:1" />
    <path
       style="opacity:1;fill:#ffb380;fill-rule:evenodd;stroke:#000000;stroke-width:0.875;stroke-linecap:round;stroke-linejoin:miter;stroke-miterlimit:4;stroke-dasharray:none;stroke-opacity:1"
       d="M 8.3074112,1032.8102 C 7.3708935,1031.4383 7.037362,1030.0323 5.994788,1030.2133 4.6662629,1030.4438 6.5159099,1032.9185 4.6462518,1032.5481 2.5412375,1032.131 1.4431,1036.975 5.7998909,1036.5984 7.7814283,1036.7139 13.141253,1032.3185 8.3074112,1032.8102 Z"
       id="path4742"
       inkscape:connector-curvature="0"
       sodipodi:nodetypes="csscc" />
    <path
       style="opacity:1;fill:#ffb380;fill-rule:evenodd;stroke:#000000;stroke-width:0.875;stroke-linecap:round;stroke-linejoin:round;stroke-miterlimit:4;stroke-dasharray:none;stroke-opacity:1"
       d="M 15.30649,1020.2584 C 14.053083,1023.2453 15.331484,1024.3062 16.179529,1025.0317 17.558204,1025.907 18.140134,1025.2891 19.261098,1025.2757 16.536453,1025.4845 16.790598,1027.7306 17.226361,1027.8528 18.116978,1028.1026 20.145866,1029.5031 20.947479,1027.9981 21.321136,1027.2967 22.096599,1025.5777 21.972011,1024.721 21.971979,1024.536 22.661133,1024.0616 23.103739,1022.976 23.567579,1021.8383 23.782834,1020.0856 23.643959,1019.8221 23.27276,1019.1175 22.989798,1017.0086 21.735504,1016.4276 20.402465,1015.8101 18.154348,1016.1826 17.265718,1016.5766 16.412119,1016.9551 15.200278,1018.0301 15.30649,1020.2584 Z"
       id="path4773"
       inkscape:connector-curvature="0"
       sodipodi:nodetypes="cccsscssssc" />
    <path
       style="opacity:1;fill:#88aa00;fill-rule:evenodd;stroke:#000000;stroke-width:0.875;stroke-linecap:round;stroke-linejoin:round;stroke-miterlimit:4;stroke-dasharray:none;stroke-opacity:1"
       d="M 15.930683,1027.1757 C 15.55104,1028.6231 12.90802,1031.0986 11.86575,1031.6394 9.7638284,1032.7297 9.4655377,1031.8034 7.5055217,1031.5757 8.2268815,1031.75 9.1393206,1036.2596 6.7594273,1036.6548 8.9231514,1037.6111 12.110817,1036.8837 13.966542,1035.972 15.476467,1035.2301 16.601469,1034.0288 19.022532,1030.0694"
       id="path4726"
       inkscape:connector-curvature="0"
       sodipodi:nodetypes="csccsc" />
    <path
       sodipodi:nodetypes="csccsc"
       inkscape:connector-curvature="0"
       id="path4704"
       d="M 16.616927,1036.4121 C 15.322918,1040.5509 16.679861,1044.3747 18.015852,1045.7994 18.917321,1046.7608 22.391943,1048.4389 25.341477,1047.5058 26.535861,1046.9424 25.689918,1043.0127 25.689918,1043.0127 23.799036,1043.7653 22.179304,1043.4855 21.548186,1042.4199 20.689049,1040.9692 21.559604,1039.321 21.1768,1037.3953"
       style="opacity:1;fill:#2c5aa0;fill-rule:evenodd;stroke:#000000;stroke-width:0.875;stroke-linecap:round;stroke-linejoin:round;stroke-miterlimit:4;stroke-dasharray:none;stroke-opacity:1" />
    <path
       style="opacity:1;fill:#806600;fill-rule:evenodd;stroke:#000000;stroke-width:0.875;stroke-linecap:round;stroke-linejoin:miter;stroke-miterlimit:4;stroke-dasharray:none;stroke-opacity:1"
       d="M 9.2248395,1046.0202 C 9.2248395,1046.0202 6.2381469,1044.2351 5.967788,1046.2629 5.6974291,1048.2907 9.9600277,1051.2689 10.980398,1051.4789 12.840573,1051.8618 13.338249,1050.0976 13.579593,1049.2159"
       id="path4706"
       inkscape:connector-curvature="0"
       sodipodi:nodetypes="czsc" />
    <path
       style="opacity:1;fill:#2a7fff;fill-rule:evenodd;stroke:#000000;stroke-width:0.875;stroke-linecap:round;stroke-linejoin:round;stroke-miterlimit:4;stroke-dasharray:none;stroke-opacity:1"
       d="M 18.34079,1037.6535 C 16.259949,1038.0966 15.097617,1038.6594 13.555157,1040.0517 12.099853,1041.3653 10.251971,1044.1485 9.2757188,1046.466 9.7360183,1047.7045 11.351248,1049.3187 13.449633,1049.4265 14.001505,1047.5756 15.87202,1044.8837 17.132544,1044.0166 18.518762,1043.063 24.157516,1043.4735 23.616908,1038.2721"
       id="path4696"
       inkscape:connector-curvature="0"
       sodipodi:nodetypes="csccsc" />
    <path
       sodipodi:nodetypes="csscc"
       inkscape:connector-curvature="0"
       id="path4771"
       d="M 26.206184,1037.1652 C 24.892171,1038.1807 23.509023,1038.596 23.750325,1039.6269 24.057791,1040.9406 26.418724,1038.9485 26.15822,1040.8379 25.864893,1042.9651 30.761416,1043.7796 30.131643,1039.4492 30.131305,1037.463 25.433825,1032.365 26.206184,1037.1652 Z"
       style="opacity:1;fill:#ffb380;fill-rule:evenodd;stroke:#000000;stroke-width:0.875;stroke-linecap:round;stroke-linejoin:miter;stroke-miterlimit:4;stroke-dasharray:none;stroke-opacity:1" />
    <path
       style="opacity:1;fill:#e5ff80;fill-rule:evenodd;stroke:#000000;stroke-width:0.875;stroke-linecap:round;stroke-linejoin:round;stroke-miterlimit:4;stroke-dasharray:none;stroke-opacity:1"
       d="M 23.639568,1038.1421 C 22.493171,1035.6644 22.96235,1033.7697 24.100627,1033.145 25.243648,1032.5177 25.439781,1028.4034 23.892179,1027.3255 23.500222,1027.0525 21.929326,1026.966 21.425658,1026.9012 19.211628,1028.925 16.673685,1028.6491 17.528864,1026.4264 15.745636,1026.3424 14.932359,1027.3117 14.251698,1028.5065 13.360627,1030.0708 14.1764,1032.9125 15.094433,1036.9195 16.677097,1038.6043 19.709335,1038.7518 23.639568,1038.1421 Z"
       id="path4722"
       inkscape:connector-curvature="0"
       sodipodi:nodetypes="cssccscc" />
    <path
       sodipodi:nodetypes="csccsc"
       inkscape:connector-curvature="0"
       id="path4720"
       d="M 22.457227,1032.904 C 23.903643,1033.2839 25.186838,1033.0938 25.727215,1034.1368 26.816902,1036.2402 25.973285,1036.7852 25.745725,1038.7465 26.872601,1039.4352 29.023354,1039.6383 30.739275,1038.4249 31.238622,1036.7985 30.476179,1032.2063 29.892662,1031.0075 29.15607,1029.4942 25.035823,1027.3847 22.351813,1027.0162"
       style="opacity:1;fill:#e5ff80;fill-rule:evenodd;stroke:#000000;stroke-width:0.875;stroke-linecap:round;stroke-linejoin:round;stroke-miterlimit:4;stroke-dasharray:none;stroke-opacity:1" />
    <path
       sodipodi:nodetypes="sssscss"
       inkscape:connector-curvature="0"
       id="path4724"
       d="M 15.184131,1036.7894 C 14.729748,1036.4294 14.623214,1037.8906 14.80107,1038.3468 14.976042,1038.7956 17.194907,1039.68 19.267111,1039.7436 21.222036,1039.8035 22.724176,1039.6337 23.80859,1038.9631 24.086478,1038.7913 24.13057,1037.0366 23.336658,1037.1501 21.845474,1037.8771 20.595789,1038.1802 18.808828,1037.9964 17.063578,1037.8167 15.477251,1037.0216 15.184131,1036.7894 Z"
       style="opacity:1;fill:#806600;fill-rule:evenodd;stroke:#000000;stroke-width:0.875;stroke-linecap:round;stroke-linejoin:miter;stroke-miterlimit:4;stroke-dasharray:none;stroke-opacity:1" />
    <path
       style="opacity:1;fill:#88aa00;fill-rule:evenodd;stroke:none;stroke-width:1.25;stroke-linecap:butt;stroke-linejoin:miter;stroke-miterlimit:4;stroke-dasharray:none;stroke-opacity:1"
       d="M 21.198534,1028.4397 C 21.454546,1029.9025 22.194907,1031.1281 23.355887,1031.6309 24.712186,1032.2183 26.585986,1032.0818 27.455907,1032.8987 26.266671,1032.8037 27.395194,1034.342 27.842378,1036.2217 28.055677,1036.6689 27.736347,1037.0224 29.975462,1037.8006 28.111601,1037.5203 27.10815,1037.4471 26.45229,1038.3457 27.243598,1036.3675 27.271121,1035.5389 26.200985,1033.4778 25.934671,1032.9649 25.084361,1032.7287 24.064384,1032.4339 22.867399,1032.0878 21.897053,1031.8989 21.657855,1032.685 21.55414,1033.245 22.338261,1033.4989 22.688939,1033.704 22.09345,1034.2679 22.187358,1035.733 22.652155,1036.9746 21.774914,1037.4936 21.144016,1037.5401 19.753564,1037.6071 20.424987,1036.4513 20.973566,1034.0158 19.589564,1032.2704 19.248049,1031.8397 20.310564,1032.5614 20.692019,1032.1145 21.559262,1031.0987 20.923904,1029.7492 21.198534,1028.4397 Z"
       id="path4728"
       inkscape:connector-curvature="0"
       sodipodi:nodetypes="csccccssccccssc" />
    <path
       style="opacity:1;fill:#806600;fill-rule:evenodd;stroke:#000000;stroke-width:0.875;stroke-linecap:round;stroke-linejoin:miter;stroke-miterlimit:4;stroke-dasharray:none;stroke-opacity:1"
       d="M 15.942072,1014.9248 C 14.237536,1014.4698 12.848189,1014.5189 13.504711,1014.9818 14.785568,1015.8849 15.568156,1017.7171 15.659501,1017.9514 17.517902,1017.3769 18.558469,1016.8224 20.423544,1017.6753 21.159823,1018.0448 21.164024,1019.2839 21.666504,1018.9184 23.599107,1017.5125 23.420265,1020.4752 22.866223,1020.8712 21.972752,1021.5097 21.33217,1021.3773 21.663089,1021.8234 22.090811,1022.4002 22.176335,1022.9675 22.640415,1023.2291 25.08072,1021.369 24.67169,1018.9872 24.309411,1017.485 23.881766,1015.7116 22.800394,1015.1932 21.327288,1014.8905 19.664151,1014.5055 17.196811,1015.2597 15.942072,1014.9248 Z"
       id="path4775"
       inkscape:connector-curvature="0"
       sodipodi:nodetypes="ssccssscscs" />
    <path
       style="fill:none;fill-rule:evenodd;stroke:#000000;stroke-width:0.875;stroke-linecap:butt;stroke-linejoin:miter;stroke-miterlimit:4;stroke-dasharray:none;stroke-opacity:1"
       d="M 17.379174,1020.7784 16.687211,1019.638"
       id="path4777"
       inkscape:connector-curvature="0"
       sodipodi:nodetypes="cc" />
    <path
       style="fill:none;fill-rule:evenodd;stroke:#000000;stroke-width:0.875;stroke-linecap:butt;stroke-linejoin:miter;stroke-miterlimit:4;stroke-dasharray:none;stroke-opacity:1"
       d="M 18.633549,1019.8632 19.972833,1021.1674"
       id="path4779"
       inkscape:connector-curvature="0"
       sodipodi:nodetypes="cc" />
    <path
       style="fill:#ffffff;fill-rule:evenodd;stroke:#d40000;stroke-width:0.875;stroke-linecap:butt;stroke-linejoin:miter;stroke-miterlimit:4;stroke-dasharray:none;stroke-opacity:1"
       d="M 16.852679,1023.4113 C 17.960842,1023.4424 18.650469,1023.8663 19.330357,1022.8087"
       id="path4781"
       inkscape:connector-curvature="0"
       sodipodi:nodetypes="cc" />
  </g>
</svg>
